<svg xmlns="http://www.w3.org/2000/svg" viewBox="0 0 1200 1320" font-family="'PingFang SC','Microsoft YaHei','Hiragino Sans GB','Noto Sans CJK SC',sans-serif">
  <defs>
    <linearGradient id="bg" x1="0" y1="0" x2="1" y2="1">
      <stop offset="0%" stop-color="#0B1020"/>
      <stop offset="55%" stop-color="#141a36"/>
      <stop offset="100%" stop-color="#1d1545"/>
    </linearGradient>
    <radialGradient id="glow1" cx="18%" cy="12%" r="45%">
      <stop offset="0%" stop-color="#4F8CFF" stop-opacity="0.35"/>
      <stop offset="100%" stop-color="#4F8CFF" stop-opacity="0"/>
    </radialGradient>
    <radialGradient id="glow2" cx="85%" cy="22%" r="40%">
      <stop offset="0%" stop-color="#A78BFA" stop-opacity="0.30"/>
      <stop offset="100%" stop-color="#A78BFA" stop-opacity="0"/>
    </radialGradient>
    <radialGradient id="glow3" cx="50%" cy="100%" r="55%">
      <stop offset="0%" stop-color="#38BDF8" stop-opacity="0.22"/>
      <stop offset="100%" stop-color="#38BDF8" stop-opacity="0"/>
    </radialGradient>

    <linearGradient id="bar" x1="0" y1="0" x2="1" y2="0">
      <stop offset="0%" stop-color="#4F8CFF"/>
      <stop offset="60%" stop-color="#38BDF8"/>
      <stop offset="100%" stop-color="#22D3EE"/>
    </linearGradient>
    <linearGradient id="bar2" x1="0" y1="0" x2="1" y2="0">
      <stop offset="0%" stop-color="#7C3AED"/>
      <stop offset="100%" stop-color="#A78BFA"/>
    </linearGradient>
    <linearGradient id="numGrad" x1="0" y1="0" x2="1" y2="1">
      <stop offset="0%" stop-color="#7DB7FF"/>
      <stop offset="100%" stop-color="#38BDF8"/>
    </linearGradient>
    <linearGradient id="land" x1="0" y1="0" x2="0" y2="1">
      <stop offset="0%" stop-color="#2f5a9e" stop-opacity="0.55"/>
      <stop offset="100%" stop-color="#1b2f5c" stop-opacity="0.38"/>
    </linearGradient>

    <filter id="mapglow" x="-20%" y="-20%" width="140%" height="140%">
      <feGaussianBlur stdDeviation="3.5"/>
    </filter>

    <symbol id="card" overflow="visible">
      <rect rx="18" ry="18" fill="#ffffff" fill-opacity="0.045"/>
      <rect rx="18" ry="18" fill="none" stroke="#ffffff" stroke-opacity="0.10"/>
    </symbol>

    <style>
      .kpi-num{font-size:72px;font-weight:800;fill:url(#numGrad);letter-spacing:-1px}
      .kpi-lbl{font-size:19px;font-weight:500;fill:#9FB3D1;letter-spacing:3px}
      .h1{font-size:46px;font-weight:800;fill:#F8FAFC;letter-spacing:1px}
      .h2{font-size:20px;font-weight:400;fill:#8EA0C0;letter-spacing:4px}
      .sect{font-size:17px;font-weight:700;fill:#E2E8F5;letter-spacing:2px}
      .sect-en{font-size:12px;font-weight:500;fill:#64748B;letter-spacing:2px}
      .ind-name{font-size:16px;font-weight:500;fill:#DCE4F5}
      .ind-num{font-size:16px;font-weight:700;fill:#7DB7FF}
      .cmap{font-size:12.5px;font-weight:600;fill:#E8EEFB;paint-order:stroke;stroke:#0B1020;stroke-width:3;stroke-linejoin:round}
      .callout-h{font-size:13px;font-weight:700;fill:#FFFFFF;letter-spacing:1px}
      .callout-b{font-size:11.5px;font-weight:500;fill:#CBD5F5}
      .legend{font-size:12px;font-weight:500;fill:#8EA0C0}
      .pill{font-size:15px;font-weight:600;fill:#E8EEFB;letter-spacing:.5px}
      .pill-hot{font-size:15px;font-weight:700;fill:#FFFFFF}
      .footer{font-size:24px;font-weight:700;fill:#CBD5F5;letter-spacing:4px}
      .more{font-size:14px;font-weight:600;fill:#94A3B8;letter-spacing:1px}
      .tag{font-size:13px;font-weight:600;fill:#7DB7FF;letter-spacing:1px}
      @media (prefers-reduced-motion:reduce){animate{display:none}*{animation:none!important}}
    </style>
  </defs>

  <!-- background -->
  <rect width="1200" height="1320" fill="url(#bg)"/>
  <rect width="1200" height="1320" fill="url(#glow1)"/>
  <rect width="1200" height="1320" fill="url(#glow2)"/>
  <rect width="1200" height="1320" fill="url(#glow3)"/>

  <!-- ============ ① 标题区 ============ -->
  <text x="600" y="80" text-anchor="middle" class="h1">这些企业都在看，你呢？</text>
  <text x="600" y="116" text-anchor="middle" class="h2">覆盖全国 · 各行各业 · 共同的信任选择</text>
  <line x1="540" y1="136" x2="660" y2="136" stroke="#4F8CFF" stroke-opacity="0.6" stroke-width="2"/>

  <!-- ============ ② 三大 KPI ============ -->
  <g transform="translate(0,158)">
    <g transform="translate(140,0)">
      <use href="#card" width="280" height="130"/>
      <text x="140" y="68" text-anchor="middle" class="kpi-num">63<tspan fill="#38BDF8" font-size="46">+</tspan></text>
      <text x="140" y="106" text-anchor="middle" class="kpi-lbl">知名企业</text>
    </g>
    <g transform="translate(460,0)">
      <use href="#card" width="280" height="130"/>
      <text x="140" y="68" text-anchor="middle" class="kpi-num">15</text>
      <text x="140" y="106" text-anchor="middle" class="kpi-lbl">座城市</text>
    </g>
    <g transform="translate(780,0)">
      <use href="#card" width="280" height="130"/>
      <text x="140" y="68" text-anchor="middle" class="kpi-num">9</text>
      <text x="140" y="106" text-anchor="middle" class="kpi-lbl">大行业</text>
    </g>
  </g>

  <!-- ============ 区块标题 ============ -->
  <text x="60" y="316" class="sect">行业分布</text>
  <text x="60" y="334" class="sect-en">INDUSTRY COVERAGE</text>
  <text x="560" y="316" class="sect">城市版图</text>
  <text x="560" y="334" class="sect-en">GEO FOOTPRINT · 点亮所在地</text>

  <!-- ============ ③ 行业分布条形图（左列） ============ -->
  <g transform="translate(60,358)">
    <g transform="translate(0,0)">
      <text x="0" y="20" class="ind-name">消费 · 食品 · 美妆</text>
      <rect x="232" y="6" width="200" height="18" rx="9" fill="url(#bar)"/>
      <text x="440" y="20" class="ind-num">13</text>
    </g>
    <g transform="translate(0,40)">
      <text x="0" y="20" class="ind-name">互联网 · 平台 · 内容</text>
      <rect x="232" y="6" width="169" height="18" rx="9" fill="url(#bar)"/>
      <text x="409" y="20" class="ind-num">11</text>
    </g>
    <g transform="translate(0,80)">
      <text x="0" y="20" class="ind-name">软件 · SaaS · 产业互联</text>
      <rect x="232" y="6" width="169" height="18" rx="9" fill="url(#bar2)"/>
      <text x="409" y="20" class="ind-num">11</text>
    </g>
    <g transform="translate(0,120)">
      <text x="0" y="20" class="ind-name">文娱 · 电竞 · 教育</text>
      <rect x="232" y="6" width="154" height="18" rx="9" fill="url(#bar)"/>
      <text x="394" y="20" class="ind-num">10</text>
    </g>
    <g transform="translate(0,160)">
      <text x="0" y="20" class="ind-name">硬件 · 光电 · 智能制造</text>
      <rect x="232" y="6" width="123" height="18" rx="9" fill="url(#bar2)"/>
      <text x="363" y="20" class="ind-num">8</text>
    </g>
    <g transform="translate(0,200)">
      <text x="0" y="20" class="ind-name">汽车 · 出行 · 物流</text>
      <rect x="232" y="6" width="108" height="18" rx="9" fill="url(#bar)"/>
      <text x="348" y="20" class="ind-num">7</text>
    </g>
    <g transform="translate(0,240)">
      <text x="0" y="20" class="ind-name">跨境出海 · 数字营销</text>
      <rect x="232" y="6" width="77" height="18" rx="9" fill="url(#bar2)"/>
      <text x="317" y="20" class="ind-num">5</text>
    </g>
    <g transform="translate(0,280)">
      <text x="0" y="20" class="ind-name">制造 · 工业 · 建设</text>
      <rect x="232" y="6" width="92" height="18" rx="9" fill="url(#bar)"/>
      <text x="332" y="20" class="ind-num">6</text>
    </g>
    <g transform="translate(0,320)">
      <text x="0" y="20" class="ind-name">医药 · 健康</text>
      <rect x="232" y="6" width="62" height="18" rx="9" fill="url(#bar2)"/>
      <text x="302" y="20" class="ind-num">4</text>
    </g>
  </g>

  <!-- ============ ④ 中国地图（右列，整体上移88） ============ -->
  <g transform="translate(0,-88)">
    <!-- subtle frame -->
    <rect x="540" y="438" width="600" height="412" rx="14" fill="#ffffff" fill-opacity="0.025" stroke="#ffffff" stroke-opacity="0.07"/>

    <!-- land glow -->
    <polygon filter="url(#mapglow)" fill="none" stroke="#38BDF8" stroke-width="3" stroke-opacity="0.55"
      points="545,609 550,588 588,577 608,561 608,535 627,519 656,503 685,498 724,535 772,556 840,567 879,572 917,561 946,546 976,514 995,482 1014,447 1034,451 1072,461 1111,503 1130,503 1111,535 1101,556 1072,583 1043,586 1034,588 1024,588 1005,602 1009,593 985,614 1014,617 1005,625 990,641 995,662 1005,672 1012,678 1014,685 1005,709 995,746 966,762 937,772 908,783 893,788 879,778 850,769 830,773 816,783 801,773 787,757 782,736 782,714 734,709 685,714 627,709 598,693 588,662 588,641 564,625"/>
    <!-- land body -->
    <polygon fill="url(#land)" stroke="#38BDF8" stroke-width="1.4" stroke-opacity="0.8"
      points="545,609 550,588 588,577 608,561 608,535 627,519 656,503 685,498 724,535 772,556 840,567 879,572 917,561 946,546 976,514 995,482 1014,447 1034,451 1072,461 1111,503 1130,503 1111,535 1101,556 1072,583 1043,586 1034,588 1024,588 1005,602 1009,593 985,614 1014,617 1005,625 990,641 995,662 1005,672 1012,678 1014,685 1005,709 995,746 966,762 937,772 908,783 893,788 879,778 850,769 830,773 816,783 801,773 787,757 782,736 782,714 734,709 685,714 627,709 598,693 588,662 588,641 564,625"/>

    <!-- 海南 / 台湾 -->
    <ellipse cx="898" cy="809" rx="11" ry="6.5" fill="url(#land)" stroke="#38BDF8" stroke-width="1.2" stroke-opacity="0.7"/>
    <ellipse cx="1018" cy="752" rx="5.5" ry="12" fill="url(#land)" stroke="#38BDF8" stroke-width="1.2" stroke-opacity="0.7"/>

    <!-- 引出线 (callout leaders) -->
    <line x1="930" y1="528" x2="960" y2="586" stroke="#38BDF8" stroke-width="1" stroke-opacity="0.55"/>
    <line x1="1043" y1="673" x2="1009" y2="680" stroke="#38BDF8" stroke-width="1" stroke-opacity="0.55"/>
    <line x1="980" y1="805" x2="938" y2="773" stroke="#38BDF8" stroke-width="1" stroke-opacity="0.55"/>

    <!-- 城市光点：聚集区 (HOT 大点 + 脉冲) -->
    <!-- 京津冀 -->
    <g>
      <circle cx="960" cy="589" r="6" fill="#FBBF24"/>
      <circle cx="960" cy="589" r="6" fill="#FBBF24" opacity="0.5">
        <animate attributeName="r" values="6;14;6" dur="2.6s" repeatCount="indefinite"/>
        <animate attributeName="opacity" values="0.5;0;0.5" dur="2.6s" repeatCount="indefinite"/>
      </circle>
      <circle cx="968" cy="597" r="3.5" fill="#7DD3FC"/>
    </g>
    <!-- 长三角 -->
    <g>
      <circle cx="1009" cy="681" r="6" fill="#FBBF24"/>
      <circle cx="1009" cy="681" r="6" fill="#FBBF24" opacity="0.5">
        <animate attributeName="r" values="6;14;6" dur="2.9s" repeatCount="indefinite"/>
        <animate attributeName="opacity" values="0.5;0;0.5" dur="2.9s" repeatCount="indefinite"/>
      </circle>
      <circle cx="1001" cy="680" r="3.5" fill="#7DD3FC"/>
      <circle cx="1005" cy="678" r="3" fill="#7DD3FC"/>
      <circle cx="983" cy="671" r="3.5" fill="#7DD3FC"/>
      <circle cx="997" cy="690" r="3.5" fill="#7DD3FC"/>
      <circle cx="979" cy="679" r="3" fill="#7DD3FC"/>
    </g>
    <!-- 珠三角 -->
    <g>
      <circle cx="930" cy="766" r="6" fill="#FBBF24"/>
      <circle cx="930" cy="766" r="6" fill="#FBBF24" opacity="0.5">
        <animate attributeName="r" values="6;14;6" dur="3.2s" repeatCount="indefinite"/>
        <animate attributeName="opacity" values="0.5;0;0.5" dur="3.2s" repeatCount="indefinite"/>
      </circle>
      <circle cx="937" cy="773" r="3.5" fill="#7DD3FC"/>
    </g>
    <!-- 其余城市光点 -->
    <circle cx="1008" cy="614" r="3.5" fill="#7DD3FC"/>
    <circle cx="986" cy="623" r="3.5" fill="#7DD3FC"/>
    <circle cx="922" cy="645" r="3.5" fill="#7DD3FC"/>
    <circle cx="940" cy="687" r="3.5" fill="#7DD3FC"/>
    <circle cx="988" cy="735" r="3.5" fill="#7DD3FC"/>

    <!-- 单城标签 -->
    <text x="1018" y="611" class="cmap">烟台</text>
    <text x="972" y="636" class="cmap">潍坊</text>
    <text x="898" y="640" class="cmap">洛阳</text>
    <text x="945" y="703" class="cmap">武汉</text>
    <text x="998" y="738" class="cmap">福州</text>

    <!-- 聚集区 callout 框 -->
    <g>
      <rect x="864" y="478" width="132" height="52" rx="8" fill="#0B1020" fill-opacity="0.82" stroke="#4F8CFF" stroke-opacity="0.45"/>
      <text x="930" y="498" text-anchor="middle" class="callout-h">京津冀</text>
      <text x="930" y="517" text-anchor="middle" class="callout-b">北京 · 天津</text>
    </g>
    <g>
      <rect x="1041" y="640" width="138" height="68" rx="8" fill="#0B1020" fill-opacity="0.82" stroke="#4F8CFF" stroke-opacity="0.45"/>
      <text x="1110" y="660" text-anchor="middle" class="callout-h">长三角</text>
      <text x="1110" y="678" text-anchor="middle" class="callout-b">上海·苏州·昆山</text>
      <text x="1110" y="696" text-anchor="middle" class="callout-b">南京·杭州·芜湖</text>
    </g>
    <g>
      <rect x="980" y="780" width="120" height="52" rx="8" fill="#0B1020" fill-opacity="0.82" stroke="#4F8CFF" stroke-opacity="0.45"/>
      <text x="1040" y="800" text-anchor="middle" class="callout-h">珠三角</text>
      <text x="1040" y="819" text-anchor="middle" class="callout-b">广州 · 深圳</text>
    </g>

    <!-- 图例 -->
    <g transform="translate(556,836)">
      <circle cx="7" cy="0" r="5" fill="#FBBF24"/>
      <text x="20" y="4" class="legend">企业聚集城市</text>
      <circle cx="128" cy="0" r="3.5" fill="#7DD3FC"/>
      <text x="140" y="4" class="legend">企业所在地</text>
      <text x="420" y="4" text-anchor="end" class="legend">东南西北 · 产业重镇全覆盖</text>
    </g>
  </g>

  <!-- 分隔线 -->
  <line x1="60" y1="776" x2="1140" y2="776" stroke="#ffffff" stroke-opacity="0.08" stroke-width="1"/>

  <!-- ============ ⑤ 知名品牌墙 ============ -->
  <text x="60" y="808" class="sect">部分知名企业</text>
  <text x="60" y="826" class="sect-en">TRUSTED BY INDUSTRY LEADERS</text>
  <text x="1140" y="812" text-anchor="end" class="tag">知名度优先排序</text>

  <g transform="translate(60,842)">
    <!-- 行1 头部大牌 -->
    <g transform="translate(0,0)">
      <rect width="124" height="42" rx="21" fill="#4F8CFF" fill-opacity="0.18" stroke="#4F8CFF" stroke-opacity="0.5"/>
      <text x="62" y="27" text-anchor="middle" class="pill-hot">字节跳动</text>
    </g>
    <g transform="translate(140,0)">
      <rect width="168" height="42" rx="21" fill="#4F8CFF" fill-opacity="0.16" stroke="#4F8CFF" stroke-opacity="0.45"/>
      <text x="84" y="27" text-anchor="middle" class="pill-hot">海底捞</text>
    </g>
    <g transform="translate(324,0)">
      <rect width="160" height="42" rx="21" fill="#4F8CFF" fill-opacity="0.16" stroke="#4F8CFF" stroke-opacity="0.45"/>
      <text x="80" y="27" text-anchor="middle" class="pill-hot">小鹏汽车</text>
    </g>
    <g transform="translate(500,0)">
      <rect width="148" height="42" rx="21" fill="#4F8CFF" fill-opacity="0.16" stroke="#4F8CFF" stroke-opacity="0.45"/>
      <text x="74" y="27" text-anchor="middle" class="pill-hot">奇瑞</text>
    </g>
    <g transform="translate(664,0)">
      <rect width="160" height="42" rx="21" fill="#4F8CFF" fill-opacity="0.16" stroke="#4F8CFF" stroke-opacity="0.45"/>
      <text x="80" y="27" text-anchor="middle" class="pill-hot">携程</text>
    </g>
    <g transform="translate(840,0)">
      <rect width="168" height="42" rx="21" fill="#4F8CFF" fill-opacity="0.16" stroke="#4F8CFF" stroke-opacity="0.45"/>
      <text x="84" y="27" text-anchor="middle" class="pill-hot">北汽集团</text>
    </g>

    <!-- 行2 -->
    <g transform="translate(0,62)">
      <rect width="108" height="40" rx="20" fill="#ffffff" fill-opacity="0.06" stroke="#ffffff" stroke-opacity="0.12"/>
      <text x="54" y="26" text-anchor="middle" class="pill">货拉拉</text>
    </g>
    <g transform="translate(124,62)">
      <rect width="124" height="40" rx="20" fill="#ffffff" fill-opacity="0.06" stroke="#ffffff" stroke-opacity="0.12"/>
      <text x="62" y="26" text-anchor="middle" class="pill">水滴公司</text>
    </g>
    <g transform="translate(264,62)">
      <rect width="120" height="40" rx="20" fill="#ffffff" fill-opacity="0.06" stroke="#ffffff" stroke-opacity="0.12"/>
      <text x="60" y="26" text-anchor="middle" class="pill">转转集团</text>
    </g>
    <g transform="translate(400,62)">
      <rect width="148" height="40" rx="20" fill="#ffffff" fill-opacity="0.06" stroke="#ffffff" stroke-opacity="0.12"/>
      <text x="74" y="26" text-anchor="middle" class="pill">度小满</text>
    </g>
    <g transform="translate(564,62)">
      <rect width="140" height="40" rx="20" fill="#ffffff" fill-opacity="0.06" stroke="#ffffff" stroke-opacity="0.12"/>
      <text x="70" y="26" text-anchor="middle" class="pill">歌尔股份</text>
    </g>
    <g transform="translate(720,62)">
      <rect width="124" height="40" rx="20" fill="#ffffff" fill-opacity="0.06" stroke="#ffffff" stroke-opacity="0.12"/>
      <text x="62" y="26" text-anchor="middle" class="pill">安克创新</text>
    </g>
    <g transform="translate(916,62)">
      <rect width="124" height="40" rx="20" fill="#ffffff" fill-opacity="0.06" stroke="#ffffff" stroke-opacity="0.12"/>
      <text x="62" y="26" text-anchor="middle" class="pill">追觅科技</text>
    </g>

    <!-- 行3 -->
    <g transform="translate(0,124)">
      <rect width="124" height="40" rx="20" fill="#ffffff" fill-opacity="0.06" stroke="#ffffff" stroke-opacity="0.12"/>
      <text x="62" y="26" text-anchor="middle" class="pill">智己汽车</text>
    </g>
    <g transform="translate(140,124)">
      <rect width="124" height="40" rx="20" fill="#ffffff" fill-opacity="0.06" stroke="#ffffff" stroke-opacity="0.12"/>
      <text x="62" y="26" text-anchor="middle" class="pill">猛士汽车</text>
    </g>
    <g transform="translate(280,124)">
      <rect width="124" height="40" rx="20" fill="#ffffff" fill-opacity="0.06" stroke="#ffffff" stroke-opacity="0.12"/>
      <text x="62" y="26" text-anchor="middle" class="pill">朴朴超市</text>
    </g>
    <g transform="translate(420,124)">
      <rect width="140" height="40" rx="20" fill="#ffffff" fill-opacity="0.06" stroke="#ffffff" stroke-opacity="0.12"/>
      <text x="70" y="26" text-anchor="middle" class="pill">沪上阿姨</text>
    </g>
    <g transform="translate(576,124)">
      <rect width="124" height="40" rx="20" fill="#ffffff" fill-opacity="0.06" stroke="#ffffff" stroke-opacity="0.12"/>
      <text x="62" y="26" text-anchor="middle" class="pill">珍酒李渡</text>
    </g>
    <g transform="translate(716,124)">
      <rect width="124" height="40" rx="20" fill="#ffffff" fill-opacity="0.06" stroke="#ffffff" stroke-opacity="0.12"/>
      <text x="62" y="26" text-anchor="middle" class="pill">新希望</text>
    </g>
    <g transform="translate(856,124)">
      <rect width="124" height="40" rx="20" fill="#ffffff" fill-opacity="0.06" stroke="#ffffff" stroke-opacity="0.12"/>
      <text x="62" y="26" text-anchor="middle" class="pill">海大集团</text>
    </g>
    <g transform="translate(996,124)">
      <rect width="116" height="40" rx="20" fill="#ffffff" fill-opacity="0.06" stroke="#ffffff" stroke-opacity="0.12"/>
      <text x="58" y="26" text-anchor="middle" class="pill">正泰集团</text>
    </g>

    <!-- 行4 -->
    <g transform="translate(0,186)">
      <rect width="124" height="40" rx="20" fill="#ffffff" fill-opacity="0.06" stroke="#ffffff" stroke-opacity="0.12"/>
      <text x="62" y="26" text-anchor="middle" class="pill">海亮集团</text>
    </g>
    <g transform="translate(140,186)">
      <rect width="140" height="40" rx="20" fill="#ffffff" fill-opacity="0.06" stroke="#ffffff" stroke-opacity="0.12"/>
      <text x="70" y="26" text-anchor="middle" class="pill">波克科技</text>
    </g>
    <g transform="translate(296,186)">
      <rect width="160" height="40" rx="20" fill="#ffffff" fill-opacity="0.06" stroke="#ffffff" stroke-opacity="0.12"/>
      <text x="80" y="26" text-anchor="middle" class="pill">英雄电竞</text>
    </g>
    <g transform="translate(472,186)">
      <rect width="120" height="40" rx="20" fill="#ffffff" fill-opacity="0.06" stroke="#ffffff" stroke-opacity="0.12"/>
      <text x="60" y="26" text-anchor="middle" class="pill">面壁智能</text>
    </g>
    <g transform="translate(608,186)">
      <rect width="156" height="40" rx="20" fill="#ffffff" fill-opacity="0.06" stroke="#ffffff" stroke-opacity="0.12"/>
      <text x="78" y="26" text-anchor="middle" class="pill">锐捷网络</text>
    </g>
    <g transform="translate(780,186)">
      <rect width="124" height="40" rx="20" fill="#ffffff" fill-opacity="0.06" stroke="#ffffff" stroke-opacity="0.12"/>
      <text x="62" y="26" text-anchor="middle" class="pill">交个朋友</text>
    </g>
    <g transform="translate(920,186)">
      <rect width="140" height="40" rx="20" fill="#ffffff" fill-opacity="0.06" stroke="#ffffff" stroke-opacity="0.12"/>
      <text x="70" y="26" text-anchor="middle" class="pill">帆书</text>
    </g>

    <!-- 行5 -->
    <g transform="translate(0,248)">
      <rect width="156" height="40" rx="20" fill="#ffffff" fill-opacity="0.06" stroke="#ffffff" stroke-opacity="0.12"/>
      <text x="78" y="26" text-anchor="middle" class="pill">睿创微纳</text>
    </g>
    <g transform="translate(172,248)">
      <rect width="124" height="40" rx="20" fill="#ffffff" fill-opacity="0.06" stroke="#ffffff" stroke-opacity="0.12"/>
      <text x="62" y="26" text-anchor="middle" class="pill">Quectel</text>
    </g>
    <g transform="translate(312,248)">
      <rect width="124" height="40" rx="20" fill="#ffffff" fill-opacity="0.06" stroke="#ffffff" stroke-opacity="0.12"/>
      <text x="62" y="26" text-anchor="middle" class="pill">致景科技</text>
    </g>
    <g transform="translate(452,248)">
      <rect width="120" height="40" rx="20" fill="#ffffff" fill-opacity="0.06" stroke="#ffffff" stroke-opacity="0.12"/>
      <text x="60" y="26" text-anchor="middle" class="pill">FS 飞速</text>
    </g>
    <g transform="translate(588,248)">
      <rect width="156" height="40" rx="20" fill="#ffffff" fill-opacity="0.06" stroke="#ffffff" stroke-opacity="0.12"/>
      <text x="78" y="26" text-anchor="middle" class="pill">小影科技</text>
    </g>
    <g transform="translate(760,248)">
      <rect width="140" height="40" rx="20" fill="#ffffff" fill-opacity="0.06" stroke="#ffffff" stroke-opacity="0.12"/>
      <text x="70" y="26" text-anchor="middle" class="pill">万物新生</text>
    </g>
    <g transform="translate(916,248)">
      <rect width="144" height="40" rx="20" fill="#ffffff" fill-opacity="0.06" stroke="#ffffff" stroke-opacity="0.12"/>
      <text x="72" y="26" text-anchor="middle" class="pill">健康元药业</text>
    </g>

    <!-- 行6 -->
    <g transform="translate(0,310)">
      <rect width="156" height="40" rx="20" fill="#ffffff" fill-opacity="0.06" stroke="#ffffff" stroke-opacity="0.12"/>
      <text x="78" y="26" text-anchor="middle" class="pill">知原药业</text>
    </g>
    <g transform="translate(172,310)">
      <rect width="168" height="40" rx="20" fill="#ffffff" fill-opacity="0.06" stroke="#ffffff" stroke-opacity="0.12"/>
      <text x="84" y="26" text-anchor="middle" class="pill">WonderLab</text>
    </g>
    <g transform="translate(356,310)">
      <rect width="168" height="40" rx="20" fill="#ffffff" fill-opacity="0.06" stroke="#ffffff" stroke-opacity="0.12"/>
      <text x="84" y="26" text-anchor="middle" class="pill">海龟爸爸</text>
    </g>
    <g transform="translate(540,310)">
      <rect width="168" height="40" rx="20" fill="#ffffff" fill-opacity="0.06" stroke="#ffffff" stroke-opacity="0.12"/>
      <text x="84" y="26" text-anchor="middle" class="pill">新航道</text>
    </g>
    <g transform="translate(724,310)">
      <rect width="168" height="40" rx="20" fill="#ffffff" fill-opacity="0.06" stroke="#ffffff" stroke-opacity="0.12"/>
      <text x="84" y="26" text-anchor="middle" class="pill">生财有术</text>
    </g>
    <g transform="translate(908,310)">
      <rect width="152" height="40" rx="20" fill="#ffffff" fill-opacity="0.06" stroke="#ffffff" stroke-opacity="0.12"/>
      <text x="76" y="26" text-anchor="middle" class="pill">WebEye</text>
    </g>

    <!-- 行7: 新增企业 -->
    <g transform="translate(0,372)">
      <rect width="108" height="40" rx="20" fill="#ffffff" fill-opacity="0.06" stroke="#ffffff" stroke-opacity="0.12"/>
      <text x="54" y="26" text-anchor="middle" class="pill">飞行社</text>
      <rect x="124" width="124" height="40" rx="20" fill="#ffffff" fill-opacity="0.06" stroke="#ffffff" stroke-opacity="0.12"/>
      <text x="186" y="26" text-anchor="middle" class="pill">万华集团</text>
      <rect x="264" width="124" height="40" rx="20" fill="#ffffff" fill-opacity="0.06" stroke="#ffffff" stroke-opacity="0.12"/>
      <text x="326" y="26" text-anchor="middle" class="pill">海柔创新</text>
    </g>

    <!-- 行8: 更多 -->
    <g transform="translate(0,434)">
      <rect width="1060" height="40" rx="20" fill="#A78BFA" fill-opacity="0.10" stroke="#A78BFA" stroke-opacity="0.35" stroke-dasharray="4 4"/>
      <text x="530" y="26" text-anchor="middle" class="more">… 以及 优矩互动 · 君润数智 · 米果国际 · 埃林哲 · 甄零科技 · 美渠 · 沪数 · 海科数联 · 荣大 · 宏信建发 等共 63+ 家企业</text>
    </g>
  </g>

</svg>
